<svg width="99" height="99" viewBox="0 0 99 99" fill="none" xmlns="http://www.w3.org/2000/svg">
<circle cx="49.5" cy="49.5" r="49.5" fill="#9B9184"/>
<path d="M69.4205 49.5C64.416 49.5 69.4205 49.5 64.416 49.5C64.0868 49.5 63.7575 49.5 63.4283 49.5C63.1649 48.2049 63.1649 48.2049 61.815 48.2049C61.0577 48.2049 60.2675 48.2049 59.4115 48.2049C59.4115 47.7942 59.4115 47.4467 59.4115 47.0992C59.4115 42.5188 59.4115 37.9699 59.4115 33.3894C59.4115 31.5573 59.7078 29.7883 60.3663 28.0824C61.4528 25.3658 63.3953 23.6599 66.5232 23.4704C71.2643 23.1861 73.8983 25.4921 73.9312 29.9146C73.9312 30.1673 73.6349 30.6096 73.4373 30.6728C70.2766 31.3993 68.2682 34.6214 68.2023 37.812C68.2023 38.349 68.4328 38.4437 68.9267 38.4437C72.7459 38.4437 76.5652 38.4437 80.3844 38.4437C80.9112 38.4437 81.1417 38.2858 81.1417 37.7488C81.1087 34.4635 78.8699 31.273 75.8408 30.6728C75.6433 30.6412 75.4128 30.2937 75.3469 30.0726C75.2482 29.7567 75.314 29.4092 75.2811 29.0933C74.9848 25.1446 72.6471 22.6807 68.6633 22.112C64.4489 21.5118 61.0248 23.344 59.3786 27.1032C58.5884 28.8406 58.1933 30.6412 58.1604 32.5365C58.0945 35.8534 58.1603 39.1703 58.1274 42.4556C58.1274 44.351 58.1274 46.2147 58.1274 48.2049C57.1726 48.2049 56.3166 48.268 55.4935 48.1733C54.5716 48.0785 54.1106 48.3628 54.2094 49.3105C54.2094 49.3421 54.1436 49.4053 54.1106 49.4369C53.1558 49.4369 52.201 49.4369 51.2462 49.4369C51.6413 47.731 51.3779 46.0884 50.6865 44.5721C49.172 41.3184 48.7439 37.9383 49.4354 34.4635C49.8963 32.2206 50.5219 30.0094 51.0816 27.7034C48.9415 27.7034 46.6368 27.7034 44.2662 27.7034C44.3321 27.9561 44.365 28.1456 44.4308 28.3036C46.5051 33.7053 47.427 39.1387 44.8259 44.6353C44.1345 46.12 43.904 47.731 44.2991 49.4053C43.1797 49.4053 42.0932 49.4053 40.9408 49.4053C41.0725 48.8682 41.2042 48.3944 41.303 47.9206C41.8627 44.0667 40.6116 40.5918 38.8337 37.2118C38.1752 35.9798 37.3521 35.348 35.8375 35.5375C35.179 35.6323 34.751 35.7902 34.3889 36.3273C32.7756 38.6649 31.8537 41.2236 31.3269 43.9403C30.9976 45.7725 31.0306 47.6363 31.6561 49.5C30.833 49.5 32.3805 49.5 31.6561 49.5" fill="white"/>
<path d="M80.1223 58.5046C78.9384 53.2998 72.8874 49.5 65.7511 49.5C54.6686 49.5 43.6189 49.5 32.5363 49.5C31.0564 49.5 29.5765 49.6597 28.1624 49.979C20.9933 51.6713 16.8168 56.94 18.2966 62.4003C19.2832 65.9766 22.802 68.9143 27.3074 70.1915C27.2087 70.4789 26.5839 72.1393 26.1893 73.5443C25.7618 75.109 26.2551 75.8753 27.143 76.6417C28.0309 77.408 28.7873 76.6736 28.7873 76.6736L30.4316 70.7982C31.0564 70.8621 31.6812 70.894 32.339 70.894C37.9625 70.894 43.586 70.894 49.2095 70.894C54.7343 70.894 60.2592 70.894 65.784 70.894C66.4746 70.894 67.1652 70.8621 67.823 70.7982C67.9216 70.7982 68.0203 70.7663 68.1518 70.7663L69.6317 76.6736C69.6317 76.6736 70.3552 77.408 71.276 76.6736C72.1968 75.9392 72.723 75.1409 72.3284 73.5762C71.9337 72.0116 71.276 70.1596 71.276 70.1596H71.1445C77.327 68.4034 81.2733 63.5498 80.1223 58.5046ZM21.7168 64.5397C17.2772 59.4306 21.8483 52.7889 30.4316 51.831C31.0564 51.7671 31.7141 51.7033 32.339 51.7033C35.9564 51.7033 39.6068 51.7033 43.2242 51.7033V68.7865C39.7383 68.7865 36.2524 68.7865 32.7665 68.7865C27.9651 68.7865 24.1832 67.3816 21.7168 64.5397ZM67.0666 68.7227C66.5404 68.7546 66.0142 68.7865 65.4881 68.7865C60.4894 68.7865 55.5236 68.7865 50.5249 68.7865H50.1303V68.7546H48.5189C48.3545 68.7865 48.1571 68.7865 47.9927 68.7865H47.5981C46.7759 68.7865 45.9538 68.7865 45.1316 68.7865V51.7033C45.9867 51.7033 46.8417 51.7033 47.6967 51.7033C47.7954 51.7033 47.894 51.7033 48.0256 51.7033C48.0914 51.7033 48.1571 51.6713 48.2229 51.6713H48.2558H48.2887C48.3216 51.6713 48.3216 51.6713 48.3545 51.6713C48.3873 51.6713 48.3873 51.6713 48.4202 51.6713C48.4531 51.6713 48.5189 51.6713 48.5518 51.6713C48.5847 51.6713 48.6175 51.6713 48.6833 51.6713C48.7162 51.6713 48.7491 51.6713 48.782 51.6713C48.8149 51.6713 48.8477 51.6713 48.8806 51.6713C48.9464 51.6713 48.9793 51.6713 49.0451 51.6713C49.0779 51.6713 49.1108 51.6713 49.1437 51.6713C49.2095 51.6713 49.2753 51.6713 49.3081 51.6713C49.3739 51.6713 49.4397 51.6713 49.5055 51.6713C49.5383 51.6713 49.5712 51.6713 49.6041 51.6713C49.9659 51.6394 50.2947 51.6394 50.6565 51.6713C55.688 51.6713 60.7196 51.6713 65.784 51.6713C72.131 51.6713 77.4915 54.9603 78.1492 59.3029C78.8727 64.0288 73.9069 68.2437 67.0666 68.7227Z" fill="white"/>
<path d="M71.4867 61.2857H51.2179C51.2179 61.2857 50.1188 61.3677 49.9895 61.6793C49.8602 61.9745 51.2179 62.0729 51.2179 62.0729H71.8423C71.8423 62.0729 72.9414 62.0729 72.9414 61.7121C72.9414 61.3349 71.4867 61.2857 71.4867 61.2857Z" fill="white"/>
</svg>
